<svg xmlns="http://www.w3.org/2000/svg" xmlns:xlink="http://www.w3.org/1999/xlink" version="1.1" width="255.1181pt" height="141.7323pt" viewBox="0 0 255.1181 141.7323">
<path transform="matrix(1,0,0,-1,0,141.7323)" d="M88.9115 94.8813C94.2888 94.8813 98.6479 90.3441 98.6479 84.7471 98.6479 79.1504 94.2888 74.613 88.9115 74.613 83.5342 74.613 79.1751 79.1504 79.1751 84.7471 79.1751 90.3441 83.5342 94.8813 88.9115 94.8813Z" fill="#ed1c24" fill-rule="evenodd"/>
<path transform="matrix(1,0,0,-1,0,141.7323)" stroke-width=".5669" stroke-linecap="butt" stroke-miterlimit="22.925585" stroke-linejoin="miter" fill="none" stroke="#ed1c24" d="M88.9115 94.8813C94.2888 94.8813 98.6479 90.3441 98.6479 84.7471 98.6479 79.1504 94.2888 74.613 88.9115 74.613 83.5342 74.613 79.1751 79.1504 79.1751 84.7471 79.1751 90.3441 83.5342 94.8813 88.9115 94.8813Z"/>
<path transform="matrix(1,0,0,-1,0,141.7323)" d="M100.5905 74.7181V83.6734C100.5905 84.8594 101.0205 85.8645 101.8803 86.6886 102.74 87.5129 103.8932 87.925 105.3394 87.925 106.395 87.925 107.1714 87.7742 107.67 87.4726 108.1684 87.171 108.5737 86.7591 108.8864 86.2364 109.1993 86.6585 109.6682 87.0454 110.2935 87.3972 110.9188 87.749 111.7103 87.925 112.6681 87.925 113.8212 87.925 114.8618 87.5682 115.7902 86.8544 116.7182 86.1409 117.1823 85.2415 117.1823 84.1558V74.7181H114.9253V83.3117C114.9253 83.4321 114.9109 83.5628 114.8814 83.7037 114.8522 83.8443 114.808 83.9849 114.7496 84.1258 114.5735 84.5478 114.3048 84.9348 113.9431 85.2866 113.5817 85.6383 113.1568 85.8144 112.6681 85.8144 112.0037 85.8144 111.4517 85.5831 111.0118 85.1207 110.5722 84.6584 110.2935 84.1459 110.1764 83.5829 110.1569 83.4826 110.1421 83.3871 110.1325 83.2966 110.1226 83.2059 110.1178 83.1206 110.1178 83.0401V74.7181H107.8605V82.8292C107.8605 83.6734 107.6553 84.382 107.2449 84.9549 106.8344 85.5278 106.1991 85.8144 105.3394 85.8144 104.3235 85.7137 103.6587 85.352 103.3461 84.7287 103.0334 84.1056 102.867 83.4321 102.8477 82.7084 102.8477 82.7084 102.8477 82.6985 102.8477 82.6784 102.8477 82.6583 102.8477 82.6381 102.8477 82.618V74.7181ZM122.254 80.6581 128.4979 84.3066C128.4392 84.3871 128.3757 84.4673 128.3074 84.5478 128.2388 84.6283 128.156 84.7188 128.058 84.8191 127.8626 85.0204 127.599 85.2012 127.2665 85.362 126.9346 85.5227 126.4555 85.6032 125.8302 85.6032 124.4622 85.6032 123.4216 85.1108 122.7084 84.1258 121.9949 83.1407 121.6383 82.0553 121.6383 80.8693 121.6383 80.8492 121.6383 80.8342 121.6383 80.824 121.6383 80.814 121.6383 80.7987 121.6383 80.7789 121.6579 79.7335 122.0196 78.7788 122.7231 77.9142 123.4267 77.0499 124.4622 76.6176 125.8302 76.6176 127.2569 76.6176 128.2192 76.9643 128.7179 77.658 129.2162 78.3516 129.6218 79.3213 129.9342 80.5677 129.9342 80.5878 129.9393 80.6029 129.9489 80.6128 129.9589 80.623 129.9637 80.638 129.9637 80.6581L132.2796 80.447V79.8741C132.2796 79.5929 132.2453 79.2913 132.177 78.9695 132.1084 78.6481 132.0058 78.3264 131.8691 78.0046 131.4587 77.08 130.7503 76.2358 129.7437 75.4719 128.7374 74.7079 127.4329 74.3261 125.8302 74.3261 123.9344 74.3261 122.3515 74.9392 121.0813 76.1655 119.8108 77.3915 119.1759 78.9596 119.1759 80.8693 119.1759 82.9397 119.7133 84.5277 120.7882 85.6332 121.8628 86.739 123.0355 87.4426 124.306 87.7439 124.5796 87.8043 124.8384 87.8496 125.083 87.8797 125.3271 87.9097 125.5762 87.925 125.8302 87.925 127.2764 87.925 128.5174 87.5129 129.5532 86.6886 130.589 85.8645 131.4292 84.8594 132.0741 83.6734L123.2799 78.7586ZM136.6767 71.3109C137.1263 71.1901 137.5415 71.0898 137.9222 71.0093 138.3035 70.9288 138.6797 70.8585 139.0513 70.7981 139.2857 70.778 139.5153 70.7581 139.7398 70.738 139.9646 70.7179 140.2041 70.7077 140.4584 70.7077 141.7286 70.7077 142.7692 71.0595 143.5802 71.763 144.3912 72.4666 144.7968 73.3513 144.7968 74.4165V80.6581C144.7968 82.1659 144.4011 83.3669 143.6097 84.2613 142.818 85.1559 141.9043 85.6032 140.8686 85.6032 140.7903 85.6032 140.7121 85.6032 140.6341 85.6032 140.5559 85.6032 140.4876 85.5933 140.4289 85.5731 139.4323 85.4926 138.5235 85.0757 137.7028 84.3216 136.8816 83.5679 136.4715 82.3467 136.4715 80.6581 136.4715 79.6127 136.8621 78.6781 137.6442 77.8538 138.4257 77.0298 139.5006 76.6176 140.8686 76.6176 141.3768 76.6176 141.8896 76.6879 142.4075 76.8288 142.9257 76.9694 143.4385 77.2509 143.9467 77.673V75.1402C143.5363 74.8185 143.0674 74.6025 142.5396 74.4919 142.0118 74.3814 141.3865 74.3261 140.6633 74.3261 138.3574 74.4265 136.7059 75.1252 135.7092 76.4218 134.7126 77.7183 134.2142 79.2711 134.2142 81.0802 134.2142 82.9497 134.6635 84.3919 135.5627 85.4073 136.4615 86.4224 137.4486 87.1209 138.5235 87.5027 138.9336 87.6436 139.3396 87.749 139.7398 87.8193 140.1406 87.8899 140.5168 87.925 140.8686 87.925 142.5104 87.925 143.9955 87.3522 145.3243 86.2061 146.6532 85.0603 147.318 83.5829 147.318 81.7739V74.7181C147.318 74.497 147.2689 74.0948 147.1714 73.512 147.0733 72.9289 146.8488 72.3059 146.497 71.6426 146.0866 70.8182 145.4122 70.0645 144.4745 69.3811 143.5363 68.6976 142.1974 68.3558 140.4584 68.3558 139.4614 68.3558 138.6113 68.4363 137.9078 68.597 137.2042 68.758 136.6376 68.9389 136.2076 69.1398 136.188 69.16 136.1636 69.175 136.1344 69.1849 136.1049 69.1951 136.0806 69.2101 136.061 69.2303ZM159.63 74.7181V82.1959C159.63 82.2161 159.63 82.2311 159.63 82.2413 159.63 82.2512 159.63 82.2662 159.63 82.2864 159.6104 83.1107 159.2926 83.8695 158.6772 84.5629 158.0615 85.2565 157.0014 85.6032 155.4965 85.6032 155.262 85.6032 154.9882 85.5731 154.6758 85.5128 154.3629 85.4524 154.0502 85.3418 153.7376 85.1811 153.1511 84.9197 152.6139 84.4826 152.1252 83.8695 151.6365 83.2564 151.3633 82.3969 151.3046 81.2914 151.3046 79.8038 151.7148 78.7133 152.5357 78.0197 153.3566 77.3263 154.2654 76.9394 155.262 76.8589 155.3207 76.8387 155.389 76.8288 155.4673 76.8288 155.5452 76.8288 155.6235 76.8288 155.7017 76.8288 156.1122 76.8288 156.4832 76.8991 156.8157 77.0397 157.1477 77.1806 157.4802 77.3714 157.8124 77.6126 157.9686 77.7535 158.125 77.8992 158.2812 78.05 158.4377 78.2008 158.6038 78.3666 158.7798 78.5475V75.5623C158.3694 75.2409 157.915 74.9894 157.4167 74.8086 156.918 74.6277 156.21 74.5373 155.2915 74.5373L154.9103 74.507C153.347 74.5271 151.979 75.1552 150.8063 76.3914 149.6336 77.6279 149.0471 79.2609 149.0471 81.2914 149.0471 83.1407 149.6092 84.7086 150.7329 85.9952 151.8565 87.2816 153.5128 87.925 155.7017 87.925 157.7733 87.925 159.366 87.3522 160.4798 86.2061 161.5941 85.0603 162.1511 83.7941 162.1511 82.4071V74.7181Z" fill="#231f20"/>
<path transform="matrix(1,0,0,-1,0,141.7323)" d="M97.9571 94.5873H161.2607V91.995H97.9571Z" fill="#ed1c24" fill-rule="evenodd"/>
<path transform="matrix(1,0,0,-1,0,141.7323)" stroke-width=".5669" stroke-linecap="butt" stroke-miterlimit="22.925585" stroke-linejoin="miter" fill="none" stroke="#ed1c24" d="M97.9571 94.5873H161.2607V91.995H97.9571Z"/>
<path transform="matrix(1,0,0,-1,0,141.7323)" d="M82.4207 61.9308C82.4207 61.8843 82.419 61.8437 82.4153 61.8077 82.4119 61.7734 82.4066 61.742 82.3975 61.7165 82.3887 61.6893 82.3779 61.6654 82.364 61.6459 82.3499 61.6249 82.3246 61.5994 82.2912 61.5708 82.2555 61.541 82.1829 61.4974 82.0726 61.4373 81.9609 61.3774 81.8243 61.3174 81.6591 61.2604 81.4941 61.2034 81.3059 61.1555 81.093 61.1164 80.8798 61.0758 80.6457 61.0563 80.3934 61.0563 79.9549 61.0563 79.5609 61.1178 79.2096 61.2408 78.8581 61.3638 78.5582 61.5453 78.3096 61.7854 78.0627 62.0269 77.8711 62.3222 77.7379 62.6763 77.6047 63.0289 77.5372 63.4354 77.5372 63.8957 77.5372 64.3669 77.61 64.787 77.7538 65.1574 77.8975 65.5262 78.0999 65.8383 78.3592 66.0949 78.62 66.3514 78.9307 66.5464 79.2927 66.6814 79.655 66.8163 80.0563 66.8837 80.4963 66.8837 80.6916 66.8837 80.8798 66.869 81.0643 66.8373 81.2472 66.8075 81.4175 66.7684 81.574 66.7219 81.7302 66.674 81.8688 66.6198 81.9893 66.5583 82.11 66.4968 82.1951 66.4458 82.2416 66.407 82.2875 66.3678 82.3195 66.3378 82.332 66.3168 82.3462 66.2958 82.3586 66.2717 82.3657 66.2448 82.3748 66.2165 82.3816 66.1833 82.387 66.1459 82.3924 66.1068 82.3958 66.062 82.3958 66.0093 82.3958 65.9509 82.3924 65.9013 82.385 65.8593 82.3779 65.8188 82.3671 65.7845 82.3533 65.7558 82.3391 65.7289 82.3229 65.7079 82.3037 65.6943 82.2841 65.6824 82.2609 65.6748 82.2345 65.6748 82.1846 65.6748 82.1171 65.7034 82.0301 65.7604 81.9451 65.8174 81.8331 65.8803 81.6948 65.9494 81.5579 66.0183 81.3929 66.0813 81.1959 66.1382 81.0006 66.1955 80.7661 66.2238 80.4912 66.2238 80.1927 66.2238 79.9214 66.1742 79.6782 66.0725 79.433 65.9718 79.2235 65.8233 79.0515 65.6269 78.8774 65.4304 78.7425 65.1903 78.6484 64.9083 78.5529 64.6262 78.5047 64.3022 78.5047 63.9394 78.5047 63.5794 78.5506 63.2599 78.6433 62.9838 78.7334 62.7063 78.8666 62.4753 79.037 62.2894 79.2096 62.1034 79.4205 61.9622 79.6691 61.8678 79.9194 61.7717 80.2018 61.7238 80.5178 61.7238 80.784 61.7238 81.0184 61.7525 81.2169 61.8077 81.4158 61.8633 81.5862 61.9262 81.7265 61.9954 81.8668 62.0643 81.9822 62.1258 82.0726 62.1814 82.1633 62.2369 82.2345 62.2653 82.2858 62.2653 82.3105 62.2653 82.33 62.261 82.3479 62.2519 82.3657 62.2429 82.3799 62.2264 82.3904 62.2009 82.3995 62.1768 82.4083 62.1422 82.4136 62.0974 82.419 62.0538 82.4207 61.9982 82.4207 61.9308ZM87.8598 63.2582C87.8598 62.9359 87.8102 62.6389 87.7088 62.369 87.6095 62.0974 87.4587 61.8633 87.2597 61.6669 87.061 61.4704 86.8105 61.3174 86.5106 61.2079 86.2106 61.0982 85.8628 61.043 85.4685 61.043 85.0836 61.043 84.748 61.0923 84.4622 61.1884 84.1765 61.2845 83.9367 61.4254 83.7468 61.6099 83.5569 61.7944 83.4148 62.0195 83.3207 62.2834 83.2266 62.5459 83.1804 62.8458 83.1804 63.1789 83.1804 63.5014 83.23 63.7982 83.3278 64.0684 83.4273 64.3399 83.5764 64.5738 83.7751 64.7702 83.9738 64.967 84.2244 65.1183 84.5226 65.2263 84.8208 65.3357 85.1686 65.3899 85.5663 65.3899 85.9513 65.3899 86.2869 65.342 86.5726 65.2445 86.8584 65.1484 87.0985 65.0075 87.2881 64.823 87.4797 64.6384 87.622 64.4134 87.7178 64.1509 87.8136 63.887 87.8598 63.5899 87.8598 63.2582ZM86.9562 63.2103C86.9562 63.4235 86.9312 63.6259 86.8853 63.8164 86.8391 64.0069 86.7609 64.1733 86.6546 64.3173 86.5463 64.4613 86.4006 64.5738 86.2177 64.658 86.0332 64.7419 85.8042 64.7838 85.5306 64.7838 85.2766 64.7838 85.0603 64.745 84.8775 64.6685 84.6964 64.5934 84.5456 64.4854 84.4285 64.3459 84.3097 64.2064 84.2224 64.0414 84.1657 63.851 84.109 63.6605 84.0804 63.4533 84.0804 63.2268 84.0804 63.0108 84.1037 62.807 84.1496 62.6165 84.1958 62.426 84.274 62.2593 84.384 62.1184 84.4926 61.9758 84.6397 61.8633 84.8225 61.7794 85.0071 61.6955 85.2361 61.655 85.5096 61.655 85.7599 61.655 85.9762 61.6924 86.1591 61.7689 86.3439 61.8454 86.495 61.9517 86.612 62.0898 86.7305 62.2264 86.8178 62.3914 86.8728 62.5819 86.9278 62.7724 86.9562 62.981 86.9562 63.2103ZM89.983 61.2363C89.983 61.2139 89.9759 61.1929 89.9614 61.1779 89.9476 61.1614 89.9243 61.1478 89.894 61.1359 89.8622 61.1237 89.8197 61.115 89.7647 61.1087 89.708 61.1028 89.6369 61.0999 89.5499 61.0999 89.4679 61.0999 89.3991 61.1028 89.3424 61.1087 89.2871 61.115 89.2426 61.1237 89.2108 61.1359 89.1768 61.1478 89.1541 61.1614 89.1434 61.1779 89.1309 61.1929 89.1238 61.2139 89.1238 61.2363V67.1074C89.1238 67.1315 89.1309 67.1525 89.1434 67.1689 89.1541 67.1868 89.1768 67.2018 89.2108 67.214 89.2426 67.2245 89.2871 67.2333 89.3424 67.2395 89.3991 67.2454 89.4679 67.2483 89.5499 67.2483 89.6369 67.2483 89.708 67.2454 89.7647 67.2395 89.8197 67.2333 89.8622 67.2245 89.894 67.214 89.9243 67.2018 89.9476 67.1868 89.9614 67.1689 89.9759 67.1525 89.983 67.1315 89.983 67.1074ZM95.921 63.2582C95.921 62.9359 95.8714 62.6389 95.7699 62.369 95.6707 62.0974 95.5199 61.8633 95.3209 61.6669 95.1222 61.4704 94.8716 61.3174 94.5717 61.2079 94.2718 61.0982 93.924 61.043 93.5297 61.043 93.1448 61.043 92.8091 61.0923 92.5234 61.1884 92.2377 61.2845 91.9979 61.4254 91.8079 61.6099 91.618 61.7944 91.476 62.0195 91.3819 62.2834 91.2881 62.5459 91.2416 62.8458 91.2416 63.1789 91.2416 63.5014 91.2912 63.7982 91.389 64.0684 91.4885 64.3399 91.6376 64.5738 91.8363 64.7702 92.035 64.967 92.2856 65.1183 92.5838 65.2263 92.882 65.3357 93.2298 65.3899 93.6275 65.3899 94.0124 65.3899 94.3481 65.342 94.6338 65.2445 94.9195 65.1484 95.1596 65.0075 95.3493 64.823 95.5409 64.6384 95.6832 64.4134 95.779 64.1509 95.8748 63.887 95.921 63.5899 95.921 63.2582ZM95.0173 63.2103C95.0173 63.4235 94.9924 63.6259 94.9465 63.8164 94.9003 64.0069 94.822 64.1733 94.7157 64.3173 94.6074 64.4613 94.4617 64.5738 94.2789 64.658 94.0944 64.7419 93.8653 64.7838 93.5918 64.7838 93.3381 64.7838 93.1215 64.745 92.9387 64.6685 92.7575 64.5934 92.6067 64.4854 92.4897 64.3459 92.3709 64.2064 92.2836 64.0414 92.2269 63.851 92.1702 63.6605 92.1416 63.4533 92.1416 63.2268 92.1416 63.0108 92.1648 62.807 92.2107 62.6165 92.2569 62.426 92.3352 62.2593 92.4452 62.1184 92.5537 61.9758 92.7009 61.8633 92.8837 61.7794 93.0682 61.6955 93.2973 61.655 93.5708 61.655 93.8211 61.655 94.0374 61.6924 94.2202 61.7689 94.405 61.8454 94.5561 61.9517 94.6732 62.0898 94.792 62.2264 94.879 62.3914 94.934 62.5819 94.989 62.7724 95.0173 62.981 95.0173 63.2103ZM99.9204 64.9324C99.9204 64.8677 99.9187 64.8139 99.915 64.7702 99.9116 64.7254 99.9045 64.6909 99.8955 64.6668 99.885 64.6413 99.8708 64.6234 99.8566 64.6098 99.8405 64.5965 99.8195 64.5902 99.7909 64.5902 99.7625 64.5902 99.7288 64.5965 99.6897 64.6098 99.6491 64.6234 99.6043 64.6353 99.5547 64.6489 99.5034 64.6622 99.4484 64.6744 99.3861 64.6863 99.3223 64.6982 99.2548 64.7045 99.182 64.7045 99.0952 64.7045 99.0116 64.6894 98.928 64.6594 98.8447 64.6308 98.7559 64.5829 98.6655 64.5154 98.5731 64.4479 98.4773 64.3578 98.3758 64.247 98.2766 64.1358 98.1649 63.9995 98.0442 63.8388V61.2363C98.0442 61.2139 98.0371 61.1929 98.0226 61.1779 98.0087 61.1614 97.9855 61.1478 97.9551 61.1359 97.9234 61.1237 97.8809 61.115 97.8259 61.1087 97.7692 61.1028 97.698 61.0999 97.611 61.0999 97.5291 61.0999 97.4602 61.1028 97.4035 61.1087 97.3485 61.115 97.3037 61.1237 97.272 61.1359 97.238 61.1478 97.2153 61.1614 97.2045 61.1779 97.1921 61.1929 97.185 61.2139 97.185 61.2363V65.1917C97.185 65.2158 97.1904 65.2354 97.2009 65.2518 97.2116 65.2669 97.2329 65.2819 97.2632 65.2955 97.295 65.3088 97.3341 65.3165 97.3837 65.321 97.4316 65.3253 97.4957 65.3284 97.5756 65.3284 97.6516 65.3284 97.7156 65.3253 97.7655 65.321 97.8151 65.3165 97.8542 65.3088 97.8826 65.2955 97.9092 65.2819 97.9305 65.2669 97.943 65.2518 97.9534 65.2354 97.9605 65.2158 97.9605 65.1917V64.6157C98.0884 64.7748 98.2091 64.9037 98.3208 65.003 98.4348 65.1019 98.5414 65.1813 98.6423 65.2382 98.7415 65.2955 98.8413 65.3343 98.9405 65.357 99.0397 65.378 99.1395 65.3899 99.2387 65.3899 99.2852 65.3899 99.3365 65.3868 99.3934 65.3822 99.4501 65.378 99.5105 65.3703 99.5726 65.3584 99.6347 65.3462 99.6917 65.3343 99.7413 65.3193 99.7926 65.3043 99.8283 65.2893 99.8476 65.2759 99.8691 65.2609 99.8833 65.2473 99.8901 65.234 99.8972 65.2204 99.9026 65.2039 99.9079 65.183 99.9133 65.162 99.917 65.1319 99.9187 65.0928 99.9204 65.054 99.9204 64.9998 99.9204 64.9324ZM101.7578 61.2363C101.7578 61.2139 101.7507 61.1929 101.7363 61.1779 101.7221 61.1614 101.6991 61.1478 101.6688 61.1359 101.6371 61.1237 101.5943 61.115 101.5393 61.1087 101.4826 61.1028 101.4114 61.0999 101.3247 61.0999 101.2428 61.0999 101.1736 61.1028 101.1169 61.1087 101.0619 61.115 101.0174 61.1237 100.9854 61.1359 100.9517 61.1478 100.9287 61.1614 100.9182 61.1779 100.9057 61.1929 100.8986 61.2139 100.8986 61.2363V65.1917C100.8986 65.213 100.9057 65.2309 100.9182 65.249 100.9287 65.2669 100.9517 65.2819 100.9854 65.2924 101.0174 65.3043 101.0619 65.3134 101.1169 65.3193 101.1736 65.3253 101.2428 65.3284 101.3247 65.3284 101.4114 65.3284 101.4826 65.3253 101.5393 65.3193 101.5943 65.3134 101.6371 65.3043 101.6688 65.2924 101.6991 65.2819 101.7221 65.2669 101.7363 65.249 101.7507 65.2309 101.7578 65.213 101.7578 65.1917ZM101.8553 66.5283C101.8553 66.3574 101.8182 66.242 101.7417 66.1805 101.6654 66.119 101.5254 66.0889 101.321 66.0889 101.1186 66.0889 100.9817 66.119 100.9074 66.1788 100.8329 66.2389 100.7957 66.3514 100.7957 66.5195 100.7957 66.689 100.8329 66.8044 100.9091 66.8659 100.9854 66.9274 101.1257 66.9589 101.3301 66.9589 101.5322 66.9589 101.6688 66.9288 101.7437 66.869 101.8182 66.8089 101.8553 66.695 101.8553 66.5283ZM105.908 66.818C105.908 66.7624 105.9046 66.7174 105.8973 66.6845 105.8902 66.6499 105.8817 66.623 105.8746 66.602 105.8655 66.5824 105.853 66.5674 105.8406 66.5614 105.8267 66.5538 105.8088 66.5493 105.7873 66.5493 105.7646 66.5493 105.7323 66.5569 105.6969 66.5688 105.6594 66.5824 105.6169 66.5974 105.5639 66.6139 105.5123 66.6289 105.4502 66.6439 105.3791 66.6573 105.3082 66.6709 105.2263 66.6768 105.1325 66.6768 105.0046 66.6768 104.8946 66.659 104.8042 66.6244 104.7152 66.5898 104.6424 66.5342 104.5857 66.4594 104.5307 66.3843 104.4916 66.2885 104.4666 66.17 104.4417 66.0515 104.4312 65.9075 104.4312 65.7363V65.306H105.4749C105.5035 65.306 105.5262 65.3014 105.546 65.291 105.5656 65.2805 105.5815 65.2623 105.5974 65.2382 105.6135 65.213 105.626 65.1813 105.6348 65.1438 105.6438 65.105 105.647 65.0582 105.647 65.003 105.647 64.8978 105.6314 64.8213 105.601 64.7748 105.569 64.7269 105.5285 64.7045 105.4749 64.7045H104.4312V61.2363C104.4312 61.2139 104.4241 61.1929 104.4099 61.1779 104.3957 61.1614 104.3728 61.1478 104.3388 61.1359 104.307 61.1237 104.2625 61.115 104.2075 61.1087 104.1506 61.1028 104.0814 61.0999 103.998 61.0999 103.9164 61.0999 103.8453 61.1028 103.7903 61.1087 103.7353 61.115 103.6911 61.1237 103.657 61.1359 103.6253 61.1478 103.602 61.1614 103.5882 61.1779 103.574 61.1929 103.5666 61.2139 103.5666 61.2363V64.7045H102.9064C102.8514 64.7045 102.8086 64.7269 102.7823 64.7748 102.7536 64.8213 102.7397 64.8978 102.7397 65.003 102.7397 65.0582 102.7429 65.105 102.75 65.1438 102.757 65.1813 102.7678 65.213 102.7823 65.2382 102.7964 65.2623 102.812 65.2805 102.8336 65.291 102.8548 65.3014 102.8798 65.306 102.9064 65.306H103.5666V65.7153C103.5666 65.99 103.5967 66.227 103.657 66.4248 103.7194 66.623 103.8118 66.7834 103.936 66.9093 104.0621 67.0354 104.218 67.1284 104.4062 67.1899 104.5964 67.25 104.8181 67.2797 105.0755 67.2797 105.1963 67.2797 105.3153 67.2693 105.4287 67.2514 105.5441 67.2318 105.6314 67.2109 105.6934 67.1899 105.7572 67.1675 105.798 67.1479 105.8196 67.1298 105.8406 67.1119 105.8567 67.0893 105.8709 67.0623 105.8851 67.034 105.8941 67.0008 105.8992 66.9603 105.9046 66.9214 105.908 66.8733 105.908 66.818ZM107.4526 61.2363C107.4526 61.2139 107.4455 61.1929 107.4311 61.1779 107.4169 61.1614 107.394 61.1478 107.3636 61.1359 107.3319 61.1237 107.2891 61.115 107.2341 61.1087 107.1774 61.1028 107.1062 61.0999 107.0195 61.0999 106.9376 61.0999 106.8684 61.1028 106.8117 61.1087 106.7567 61.115 106.7122 61.1237 106.6802 61.1359 106.6465 61.1478 106.6235 61.1614 106.613 61.1779 106.6005 61.1929 106.5934 61.2139 106.5934 61.2363V65.1917C106.5934 65.2158 106.6005 65.2354 106.613 65.2518 106.6235 65.2669 106.6465 65.2819 106.6802 65.2955 106.7122 65.3088 106.7567 65.3165 106.8117 65.321 106.8684 65.3253 106.9376 65.3284 107.0195 65.3284 107.1062 65.3284 107.1774 65.3253 107.2341 65.321 107.2891 65.3165 107.3319 65.3088 107.3636 65.2955 107.394 65.2819 107.4169 65.2669 107.4311 65.2518 107.4455 65.2354 107.4526 65.2158 107.4526 65.1917ZM107.3636 67.1253C107.3852 67.1584 107.4084 67.1839 107.4365 67.2049 107.4651 67.2245 107.4986 67.2409 107.5377 67.2528 107.5788 67.265 107.6264 67.2738 107.6868 67.2797 107.7454 67.2843 107.8166 67.2874 107.8997 67.2874 107.9957 67.2874 108.0754 67.2829 108.1358 67.2724 108.1962 67.2619 108.239 67.2483 108.2636 67.229 108.2869 67.2094 108.2976 67.1885 108.294 67.163 108.2906 67.1374 108.2761 67.1119 108.248 67.0864L107.3069 66.062C107.2786 66.0334 107.2536 66.0093 107.2304 65.9914 107.2077 65.9733 107.1828 65.9599 107.1527 65.9494 107.1241 65.939 107.085 65.933 107.0391 65.9285 106.9909 65.9239 106.9342 65.9208 106.8647 65.9208 106.7888 65.9208 106.7267 65.9254 106.6819 65.9344 106.6377 65.9435 106.6059 65.9554 106.5864 65.9704 106.5665 65.9837 106.5594 66.0033 106.5648 66.0274 106.5702 66.0498 106.5844 66.0784 106.6093 66.1099ZM112.4036 61.8395C112.4036 61.7885 112.4016 61.7462 112.3982 61.7088 112.3946 61.6728 112.3875 61.6414 112.3807 61.6173 112.3716 61.5917 112.3611 61.5694 112.3486 61.5515 112.3362 61.5319 112.3095 61.5033 112.265 61.4673 112.2225 61.4313 112.1479 61.3848 112.045 61.331 111.9404 61.2768 111.8231 61.2289 111.6935 61.187 111.564 61.1433 111.4217 61.1087 111.2692 61.0835 111.1164 61.0563 110.9585 61.043 110.7952 61.043 110.4596 61.043 110.1614 61.0909 109.9023 61.1838 109.6415 61.2782 109.4247 61.4149 109.2489 61.5949 109.0735 61.7749 108.9403 61.9968 108.8478 62.2579 108.7574 62.5204 108.7112 62.8234 108.7112 63.1653 108.7112 63.5553 108.7662 63.8898 108.8799 64.1704 108.9916 64.4494 109.146 64.679 109.3433 64.8573 109.5384 65.0358 109.7694 65.1694 110.0336 65.255 110.3 65.342 110.5858 65.3854 110.8947 65.3854 111.0436 65.3854 111.1893 65.3734 111.3296 65.3494 111.4696 65.327 111.5994 65.2955 111.7165 65.2578 111.8336 65.2204 111.9404 65.1753 112.0306 65.126 112.1233 65.0764 112.1907 65.0344 112.2313 64.9984 112.2738 64.9638 112.3024 64.9355 112.3163 64.9142 112.3325 64.895 112.3466 64.8709 112.3557 64.8422 112.3665 64.8139 112.3736 64.7838 112.3767 64.7478 112.3807 64.7133 112.3821 64.6685 112.3821 64.6157 112.3821 64.5018 112.3665 64.4224 112.3362 64.3774 112.3041 64.3309 112.2667 64.3085 112.2208 64.3085 112.1692 64.3085 112.1088 64.3323 112.0414 64.3805 111.9739 64.4298 111.8889 64.4822 111.784 64.5409 111.6811 64.5993 111.5549 64.6534 111.4078 64.7014 111.2604 64.751 111.0864 64.7748 110.884 64.7748 110.4721 64.7748 110.156 64.6398 109.9361 64.3728 109.7158 64.1044 109.6058 63.7157 109.6058 63.2058 109.6058 62.951 109.6345 62.7273 109.6911 62.5354 109.7478 62.3435 109.8329 62.1828 109.9431 62.0538 110.0551 61.9248 110.19 61.829 110.3516 61.7658 110.5129 61.7029 110.6974 61.6714 110.9055 61.6714 111.1025 61.6714 111.2763 61.6983 111.4254 61.7508 111.5745 61.8035 111.7043 61.8619 111.8126 61.9248 111.9226 61.9877 112.015 62.045 112.0893 62.0957 112.1638 62.1468 112.2208 62.1723 112.2633 62.1723 112.2863 62.1723 112.3078 62.1663 112.3254 62.1558 112.3432 62.1439 112.3574 62.1244 112.3699 62.0957 112.3821 62.0674 112.3892 62.0328 112.3946 61.9909 112.3999 61.9475 112.4036 61.8979 112.4036 61.8395ZM114.4006 61.2363C114.4006 61.2139 114.3935 61.1929 114.3791 61.1779 114.3652 61.1614 114.342 61.1478 114.3119 61.1359 114.2799 61.1237 114.2374 61.115 114.1824 61.1087 114.1257 61.1028 114.0545 61.0999 113.9675 61.0999 113.8859 61.0999 113.8167 61.1028 113.76 61.1087 113.705 61.115 113.6602 61.1237 113.6285 61.1359 113.5945 61.1478 113.5718 61.1614 113.561 61.1779 113.5485 61.1929 113.5414 61.2139 113.5414 61.2363V65.1917C113.5414 65.213 113.5485 65.2309 113.561 65.249 113.5718 65.2669 113.5945 65.2819 113.6285 65.2924 113.6602 65.3043 113.705 65.3134 113.76 65.3193 113.8167 65.3253 113.8859 65.3284 113.9675 65.3284 114.0545 65.3284 114.1257 65.3253 114.1824 65.3193 114.2374 65.3134 114.2799 65.3043 114.3119 65.2924 114.342 65.2819 114.3652 65.2669 114.3791 65.249 114.3935 65.2309 114.4006 65.213 114.4006 65.1917ZM114.4984 66.5283C114.4984 66.3574 114.461 66.242 114.3845 66.1805 114.3085 66.119 114.1682 66.0889 113.9638 66.0889 113.7617 66.0889 113.6248 66.119 113.5502 66.1788 113.4757 66.2389 113.4386 66.3514 113.4386 66.5195 113.4386 66.689 113.4757 66.8044 113.5519 66.8659 113.6285 66.9274 113.7688 66.9589 113.9729 66.9589 114.1753 66.9589 114.3119 66.9288 114.3865 66.869 114.461 66.8089 114.4984 66.695 114.4984 66.5283ZM120.3386 63.2582C120.3386 62.9359 120.289 62.6389 120.1878 62.369 120.0883 62.0974 119.9375 61.8633 119.7386 61.6669 119.5398 61.4704 119.2893 61.3174 118.9894 61.2079 118.6894 61.0982 118.3416 61.043 117.9476 61.043 117.5624 61.043 117.2271 61.0923 116.941 61.1884 116.6553 61.2845 116.4155 61.4254 116.2256 61.6099 116.0357 61.7944 115.8939 62.0195 115.7995 62.2834 115.7057 62.5459 115.6592 62.8458 115.6592 63.1789 115.6592 63.5014 115.7091 63.7982 115.8066 64.0684 115.9061 64.3399 116.0552 64.5738 116.2542 64.7702 116.4526 64.967 116.7032 65.1183 117.0014 65.2263 117.2996 65.3357 117.6477 65.3899 118.0451 65.3899 118.4304 65.3899 118.7657 65.342 119.0514 65.2445 119.3374 65.1484 119.5773 65.0075 119.7672 64.823 119.9585 64.6384 120.1008 64.4134 120.1969 64.1509 120.2924 63.887 120.3386 63.5899 120.3386 63.2582ZM119.435 63.2103C119.435 63.4235 119.41 63.6259 119.3641 63.8164 119.3179 64.0069 119.2397 64.1733 119.1334 64.3173 119.0251 64.4613 118.8794 64.5738 118.6965 64.658 118.512 64.7419 118.283 64.7838 118.0097 64.7838 117.7557 64.7838 117.5391 64.745 117.3563 64.6685 117.1752 64.5934 117.0244 64.4854 116.9073 64.3459 116.7885 64.2064 116.7012 64.0414 116.6445 63.851 116.5878 63.6605 116.5595 63.4533 116.5595 63.2268 116.5595 63.0108 116.5825 62.807 116.6284 62.6165 116.6749 62.426 116.7528 62.2593 116.8631 62.1184 116.9714 61.9758 117.1185 61.8633 117.3013 61.7794 117.4859 61.6955 117.7152 61.655 117.9884 61.655 118.2387 61.655 118.455 61.6924 118.6379 61.7689 118.8227 61.8454 118.9738 61.9517 119.0908 62.0898 119.2096 62.2264 119.2966 62.3914 119.3519 62.5819 119.4069 62.7724 119.435 62.981 119.435 63.2103ZM128.6022 61.9308C128.6022 61.8843 128.6005 61.8437 128.5968 61.8077 128.5934 61.7734 128.588 61.742 128.579 61.7165 128.5705 61.6893 128.5597 61.6654 128.5455 61.6459 128.5313 61.6249 128.5061 61.5994 128.4727 61.5708 128.4372 61.541 128.3644 61.4974 128.2544 61.4373 128.1427 61.3774 128.0058 61.3174 127.8408 61.2604 127.6756 61.2034 127.4873 61.1555 127.2745 61.1164 127.0613 61.0758 126.8271 61.0563 126.5749 61.0563 126.1366 61.0563 125.7423 61.1178 125.3911 61.2408 125.0396 61.3638 124.7397 61.5453 124.4911 61.7854 124.2442 62.0269 124.0526 62.3222 123.9194 62.6763 123.7861 63.0289 123.719 63.4354 123.719 63.8957 123.719 64.3669 123.7915 64.787 123.9352 65.1574 124.0792 65.5262 124.2814 65.8383 124.5407 66.0949 124.8018 66.3514 125.1125 66.5464 125.4745 66.6814 125.8367 66.8163 126.2378 66.8837 126.678 66.8837 126.8731 66.8837 127.0613 66.869 127.2458 66.8373 127.4287 66.8075 127.599 66.7684 127.7555 66.7219 127.9117 66.674 128.0503 66.6198 128.1708 66.5583 128.2915 66.4968 128.3769 66.4458 128.4231 66.407 128.469 66.3678 128.5013 66.3378 128.5138 66.3168 128.5277 66.2958 128.5401 66.2717 128.5472 66.2448 128.5563 66.2165 128.5634 66.1833 128.5688 66.1459 128.5741 66.1068 128.5773 66.062 128.5773 66.0093 128.5773 65.9509 128.5741 65.9013 128.5665 65.8593 128.5597 65.8188 128.5489 65.7845 128.5347 65.7558 128.5206 65.7289 128.5047 65.7079 128.4851 65.6943 128.4656 65.6824 128.4426 65.6748 128.416 65.6748 128.3661 65.6748 128.2986 65.7034 128.2116 65.7604 128.1266 65.8174 128.0149 65.8803 127.8763 65.9494 127.7393 66.0183 127.5744 66.0813 127.3774 66.1382 127.182 66.1955 126.9476 66.2238 126.6727 66.2238 126.3745 66.2238 126.1029 66.1742 125.8597 66.0725 125.6145 65.9718 125.4053 65.8233 125.2332 65.6269 125.0589 65.4304 124.9243 65.1903 124.8299 64.9083 124.7343 64.6262 124.6864 64.3022 124.6864 63.9394 124.6864 63.5794 124.7323 63.2599 124.8248 62.9838 124.9152 62.7063 125.0484 62.4753 125.2188 62.2894 125.3911 62.1034 125.602 61.9622 125.8506 61.8678 126.1009 61.7717 126.3835 61.7238 126.6993 61.7238 126.9655 61.7238 127.1999 61.7525 127.3986 61.8077 127.5976 61.8633 127.768 61.9262 127.908 61.9954 128.0483 62.0643 128.1637 62.1258 128.2544 62.1814 128.3448 62.2369 128.416 62.2653 128.4673 62.2653 128.4922 62.2653 128.5115 62.261 128.5294 62.2519 128.5472 62.2429 128.5617 62.2264 128.5719 62.2009 128.5809 62.1768 128.5897 62.1422 128.5951 62.0974 128.6005 62.0538 128.6022 61.9982 128.6022 61.9308ZM133.6827 63.3858C133.6827 63.2718 133.649 63.1894 133.5815 63.1414 133.5141 63.0933 133.4378 63.0694 133.3508 63.0694H130.2814C130.2814 62.8489 130.3081 62.6525 130.3597 62.4753 130.411 62.2998 130.4983 62.1499 130.6208 62.0237 130.7415 61.8979 130.8994 61.8004 131.0927 61.7329 131.288 61.6654 131.5242 61.6323 131.8065 61.6323 132.0282 61.6323 132.2252 61.6473 132.3992 61.6788 132.5713 61.7088 132.7224 61.7434 132.8485 61.7822 132.9746 61.8199 133.0792 61.8542 133.1609 61.8843 133.2425 61.9157 133.3029 61.9308 133.3457 61.9308 133.3684 61.9308 133.3916 61.9262 133.4095 61.9157 133.4288 61.9053 133.4432 61.8902 133.4537 61.8693 133.4645 61.8483 133.4735 61.8199 133.4784 61.7839 133.482 61.7479 133.4857 61.7029 133.4857 61.6504 133.4857 61.6113 133.4837 61.5784 133.4806 61.5515 133.4769 61.5229 133.4735 61.4988 133.4682 61.4764 133.4628 61.454 133.4537 61.4344 133.4412 61.4163 133.4288 61.3998 133.4132 61.382 133.3953 61.367 133.3755 61.3502 133.3188 61.3233 133.2249 61.2873 133.1325 61.2513 133.0098 61.2153 132.861 61.1793 132.7116 61.145 132.5395 61.1133 132.3442 61.0849 132.1489 61.058 131.9397 61.043 131.7178 61.043 131.3325 61.043 130.9949 61.0894 130.7058 61.1793 130.4164 61.2709 130.1732 61.4058 129.9745 61.5844 129.7774 61.763 129.6283 61.9863 129.5271 62.2565 129.4277 62.5263 129.3761 62.8398 129.3761 63.197 129.3761 63.5357 129.4294 63.8419 129.5325 64.1134 129.6371 64.3833 129.7862 64.6143 129.9832 64.8034 130.1786 64.9925 130.4147 65.1365 130.6933 65.2382 130.9703 65.3389 131.2809 65.3899 131.6237 65.3899 131.991 65.3899 132.3034 65.3403 132.5628 65.2399 132.8199 65.141 133.033 65.0058 133.2 64.838 133.3667 64.6699 133.4874 64.4717 133.5657 64.2453 133.6439 64.0174 133.6827 63.7758 133.6827 63.5179ZM132.8199 63.6004C132.8306 63.9814 132.7314 64.2813 132.52 64.4973 132.3105 64.715 131.9998 64.823 131.5882 64.823 131.3751 64.823 131.1902 64.7884 131.0306 64.7209 130.8711 64.6549 130.7378 64.565 130.6315 64.4539 130.523 64.3428 130.4396 64.2124 130.3809 64.0653 130.3226 63.917 130.2885 63.7622 130.2814 63.6004ZM137.723 64.9324C137.723 64.8677 137.7215 64.8139 137.7179 64.7702 137.7145 64.7254 137.7074 64.6909 137.6983 64.6668 137.6875 64.6413 137.6734 64.6234 137.6595 64.6098 137.6433 64.5965 137.622 64.5902 137.5937 64.5902 137.5651 64.5902 137.5316 64.5965 137.4922 64.6098 137.4517 64.6234 137.4072 64.6353 137.3576 64.6489 137.306 64.6622 137.251 64.6744 137.1886 64.6863 137.1249 64.6982 137.0577 64.7045 136.9848 64.7045 136.8978 64.7045 136.8145 64.6894 136.7308 64.6594 136.6472 64.6308 136.5588 64.5829 136.4681 64.5154 136.3759 64.4479 136.2798 64.3578 136.1786 64.247 136.0794 64.1358 135.9677 63.9995 135.847 63.8388V61.2363C135.847 61.2139 135.8399 61.1929 135.8254 61.1779 135.8113 61.1614 135.788 61.1478 135.758 61.1359 135.726 61.1237 135.6834 61.115 135.6284 61.1087 135.5717 61.1028 135.5006 61.0999 135.4139 61.0999 135.3319 61.0999 135.2628 61.1028 135.2061 61.1087 135.1511 61.115 135.1066 61.1237 135.0746 61.1359 135.0408 61.1478 135.0179 61.1614 135.0071 61.1779 134.9949 61.1929 134.9878 61.2139 134.9878 61.2363V65.1917C134.9878 65.2158 134.9932 65.2354 135.0034 65.2518 135.0142 65.2669 135.0357 65.2819 135.0658 65.2955 135.0978 65.3088 135.1366 65.3165 135.1862 65.321 135.2344 65.3253 135.2985 65.3284 135.3781 65.3284 135.4544 65.3284 135.5185 65.3253 135.5681 65.321 135.6177 65.3165 135.6571 65.3088 135.6851 65.2955 135.7121 65.2819 135.733 65.2669 135.7455 65.2518 135.7563 65.2354 135.7634 65.2158 135.7634 65.1917V64.6157C135.8912 64.7748 136.012 64.9037 136.1237 65.003 136.2373 65.1019 136.3439 65.1813 136.4451 65.2382 136.5443 65.2955 136.6438 65.3343 136.7433 65.357 136.8425 65.378 136.942 65.3899 137.0415 65.3899 137.0877 65.3899 137.139 65.3868 137.196 65.3822 137.2527 65.378 137.3131 65.3703 137.3751 65.3584 137.4372 65.3462 137.4942 65.3343 137.5441 65.3193 137.5954 65.3043 137.6308 65.2893 137.6504 65.2759 137.6717 65.2609 137.6858 65.2473 137.6929 65.234 137.7 65.2204 137.7054 65.2039 137.7108 65.183 137.7162 65.162 137.7198 65.1319 137.7215 65.0928 137.723 65.054 137.723 64.9998 137.723 64.9324" fill="#ed1c24"/>
<path transform="matrix(1,0,0,-1,0,141.7323)" d="M142.0101 61.2317C142.0101 61.1974 141.9959 61.1702 141.9673 61.1538 141.9409 61.1359 141.9015 61.1223 141.8539 61.1133 141.804 61.1045 141.7331 61.0999 141.641 61.0999 141.5503 61.0999 141.4777 61.1045 141.4242 61.1133 141.3709 61.1223 141.332 61.1359 141.3071 61.1538 141.2824 61.1702 141.2717 61.1974 141.2717 61.2317V61.6277C141.0656 61.4435 140.8385 61.2995 140.5862 61.1974 140.3359 61.0954 140.0698 61.043 139.7891 61.043 139.5425 61.043 139.3189 61.0699 139.1199 61.1254 138.9214 61.1793 138.7511 61.2573 138.6108 61.3593 138.4705 61.4628 138.3605 61.5889 138.2822 61.7374 138.2057 61.8874 138.1669 62.0569 138.1669 62.2474 138.1669 62.4708 138.2202 62.663 138.3265 62.8279 138.435 62.9915 138.5892 63.1278 138.7899 63.2358 138.9906 63.3453 139.2375 63.4263 139.5283 63.4805 139.8195 63.5343 140.1477 63.5613 140.5117 63.5613H141.1563V63.8688C141.1563 64.0219 141.1367 64.1568 141.0996 64.2739 141.0602 64.391 140.9998 64.4885 140.9148 64.565 140.8294 64.643 140.7195 64.7014 140.5845 64.7419 140.4496 64.781 140.2826 64.8003 140.0856 64.8003 139.8728 64.8003 139.6845 64.7793 139.5159 64.7374 139.3475 64.694 139.2001 64.6475 139.074 64.5965 138.9461 64.5454 138.8415 64.499 138.7562 64.4553 138.6711 64.4134 138.6088 64.3924 138.566 64.3924 138.5396 64.3924 138.5147 64.3983 138.4934 64.4088 138.4722 64.421 138.4543 64.4389 138.4384 64.463 138.4243 64.4854 138.4118 64.5154 138.4047 64.5528 138.3976 64.5888 138.3939 64.6294 138.3939 64.673 138.3939 64.7464 138.401 64.8048 138.4135 64.8468 138.426 64.889 138.4543 64.9293 138.5025 64.9684 138.5484 65.0058 138.6286 65.0509 138.744 65.1019 138.8574 65.1529 138.9889 65.1994 139.1377 65.2428 139.2871 65.285 139.4504 65.3193 139.6278 65.3479 139.8036 65.3763 139.9827 65.3899 140.1639 65.3899 140.4995 65.3899 140.7852 65.357 141.0214 65.2924 141.2575 65.2277 141.4474 65.1334 141.5931 65.0089 141.7385 64.8845 141.8448 64.73 141.9106 64.5454 141.9763 64.3609 142.0101 64.1463 142.0101 63.9003ZM141.1563 63.038H140.423C140.1871 63.038 139.9827 63.0213 139.809 62.9884 139.6366 62.9538 139.4929 62.9045 139.3775 62.8384 139.2639 62.7724 139.1786 62.693 139.1253 62.6014 139.0723 62.5085 139.0456 62.4033 139.0456 62.2834 139.0456 62.0779 139.1219 61.9143 139.2763 61.793 139.4306 61.6714 139.6474 61.6099 139.9243 61.6099 140.1497 61.6099 140.3575 61.6578 140.5508 61.7553 140.7427 61.8514 140.9448 61.9999 141.1563 62.1995ZM139.5961 66.0529C139.5746 66.0243 139.5533 66.0019 139.5337 65.9854 139.5125 65.969 139.4875 65.9568 139.4575 65.9477 139.4289 65.939 139.3917 65.933 139.3492 65.9285 139.3047 65.9239 139.2497 65.9208 139.1839 65.9208 139.0918 65.9208 139.019 65.9268 138.9694 65.9373 138.9178 65.9463 138.884 65.9614 138.8682 65.9809 138.8503 66.0005 138.8486 66.0243 138.8628 66.0557 138.875 66.0858 138.9036 66.1235 138.9461 66.1669L139.8036 67.1734C139.8214 67.1973 139.841 67.2154 139.8657 67.229 139.8906 67.2423 139.9207 67.2528 139.9564 67.2619 139.9935 67.271 140.0377 67.2769 140.0927 67.2814 140.146 67.286 140.2098 67.2874 140.2863 67.2874 140.3592 67.2874 140.4213 67.286 140.4692 67.2814 140.5171 67.2769 140.5599 67.2693 140.5933 67.2588 140.6288 67.25 140.6574 67.2378 140.6806 67.2245 140.7016 67.2109 140.7231 67.1944 140.739 67.1734L141.5985 66.1669C141.6356 66.1235 141.662 66.0858 141.6762 66.0557 141.6886 66.0243 141.6886 66.0005 141.6728 65.9809 141.6569 65.9614 141.6231 65.9463 141.5716 65.9373 141.5203 65.9268 141.4491 65.9208 141.3584 65.9208 141.2858 65.9208 141.2274 65.9239 141.1846 65.9285 141.1401 65.933 141.1047 65.939 141.078 65.9477 141.0494 65.9568 141.0267 65.9704 141.0106 65.9869 140.9927 66.005 140.9717 66.0274 140.9468 66.0529L140.2722 66.8449ZM150.5271 61.2363C150.5271 61.2139 150.52 61.1929 150.5075 61.1779 150.4936 61.1614 150.4704 61.1478 150.4403 61.1359 150.4083 61.1237 150.3658 61.115 150.3091 61.1087 150.2538 61.1028 150.1846 61.0999 150.101 61.0999 150.0143 61.0999 149.9431 61.1028 149.8881 61.1087 149.8329 61.115 149.7886 61.1237 149.7552 61.1359 149.7229 61.1478 149.6999 61.1614 149.6857 61.1779 149.6716 61.1929 149.6645 61.2139 149.6645 61.2363V63.6409C149.6645 63.8073 149.6469 63.9604 149.6129 64.097 149.5774 64.2348 149.5225 64.3533 149.4462 64.4539 149.3697 64.5528 149.2722 64.6294 149.1551 64.6818 149.038 64.7342 148.8977 64.7614 148.7398 64.7614 148.5408 64.7614 148.3418 64.6968 148.1434 64.5678 147.9444 64.4389 147.7242 64.2498 147.4863 64.0009V61.2363C147.4863 61.2139 147.4792 61.1929 147.4651 61.1779 147.4509 61.1614 147.4277 61.1478 147.3942 61.1359 147.3619 61.1237 147.3177 61.115 147.2627 61.1087 147.206 61.1028 147.1365 61.0999 147.0535 61.0999 146.9733 61.0999 146.9058 61.1028 146.8491 61.1087 146.7904 61.115 146.7459 61.1237 146.7125 61.1359 146.6804 61.1478 146.6575 61.1614 146.645 61.1779 146.6342 61.1929 146.6274 61.2139 146.6274 61.2363V63.6409C146.6274 63.8073 146.6076 63.9604 146.5702 64.097 146.5313 64.2348 146.4746 64.3533 146.3981 64.4539 146.3216 64.5528 146.226 64.6294 146.1107 64.6818 145.9933 64.7342 145.8567 64.7614 145.6971 64.7614 145.4981 64.7614 145.2991 64.6968 145.0987 64.5678 144.8983 64.4389 144.678 64.2498 144.4439 64.0009V61.2363C144.4439 61.2139 144.4368 61.1929 144.4224 61.1779 144.4082 61.1614 144.3849 61.1478 144.3549 61.1359 144.3229 61.1237 144.2803 61.115 144.2254 61.1087 144.1687 61.1028 144.0975 61.0999 144.0108 61.0999 143.9289 61.0999 143.8597 61.1028 143.803 61.1087 143.748 61.115 143.7035 61.1237 143.6715 61.1359 143.6377 61.1478 143.6148 61.1614 143.604 61.1779 143.5918 61.1929 143.5847 61.2139 143.5847 61.2363V65.1917C143.5847 65.2158 143.5901 65.2354 143.6003 65.2518 143.6111 65.2669 143.6326 65.2819 143.6627 65.2955 143.6947 65.3088 143.7335 65.3165 143.7831 65.321 143.8313 65.3253 143.8954 65.3284 143.9751 65.3284 144.0513 65.3284 144.1154 65.3253 144.165 65.321 144.2146 65.3165 144.254 65.3088 144.282 65.2955 144.309 65.2819 144.33 65.2669 144.3424 65.2518 144.3532 65.2354 144.3603 65.2158 144.3603 65.1917V64.6685C144.6228 64.9174 144.8785 65.1005 145.1271 65.2158 145.3757 65.3315 145.626 65.3899 145.8782 65.3899 146.0735 65.3899 146.2473 65.3703 146.4018 65.3329 146.5563 65.2938 146.6909 65.2414 146.8103 65.1725 146.9273 65.1033 147.0285 65.0208 147.1116 64.9264 147.1935 64.8303 147.2644 64.7237 147.3194 64.607 147.4756 64.751 147.623 64.8723 147.7633 64.9715 147.9033 65.0718 148.0402 65.1529 148.1698 65.2144 148.2993 65.2759 148.4254 65.3193 148.5496 65.3479 148.6723 65.3763 148.7965 65.3899 148.9207 65.3899 149.2226 65.3899 149.4763 65.3448 149.6803 65.255 149.8847 65.1662 150.0497 65.0463 150.1775 64.8978 150.3037 64.7478 150.3941 64.5724 150.4471 64.3728 150.5007 64.1718 150.5271 63.9604 150.5271 63.737ZM152.9521 61.2363C152.9521 61.2139 152.945 61.1929 152.9306 61.1779 152.9167 61.1614 152.8934 61.1478 152.8634 61.1359 152.8313 61.1237 152.7888 61.115 152.7338 61.1087 152.6771 61.1028 152.606 61.0999 152.519 61.0999 152.4373 61.0999 152.3682 61.1028 152.3115 61.1087 152.2565 61.115 152.2117 61.1237 152.1799 61.1359 152.1459 61.1478 152.1232 61.1614 152.1125 61.1779 152.1 61.1929 152.0929 61.2139 152.0929 61.2363V65.1917C152.0929 65.213 152.1 65.2309 152.1125 65.249 152.1232 65.2669 152.1459 65.2819 152.1799 65.2924 152.2117 65.3043 152.2565 65.3134 152.3115 65.3193 152.3682 65.3253 152.4373 65.3284 152.519 65.3284 152.606 65.3284 152.6771 65.3253 152.7338 65.3193 152.7888 65.3134 152.8313 65.3043 152.8634 65.2924 152.8934 65.2819 152.9167 65.2669 152.9306 65.249 152.945 65.2309 152.9521 65.213 152.9521 65.1917ZM153.0496 66.5283C153.0496 66.3574 153.0125 66.242 152.9359 66.1805 152.86 66.119 152.7197 66.0889 152.5153 66.0889 152.3132 66.0889 152.1763 66.119 152.1017 66.1788 152.0271 66.2389 151.99 66.3514 151.99 66.5195 151.99 66.689 152.0271 66.8044 152.1034 66.8659 152.1799 66.9274 152.3203 66.9589 152.5243 66.9589 152.7267 66.9589 152.8634 66.9288 152.9379 66.869 153.0125 66.8089 153.0496 66.695 153.0496 66.5283ZM157.9034 61.8395C157.9034 61.7885 157.9011 61.7462 157.898 61.7088 157.8943 61.6728 157.8872 61.6414 157.8801 61.6173 157.8711 61.5917 157.8606 61.5694 157.8481 61.5515 157.8359 61.5319 157.809 61.5033 157.7648 61.4673 157.722 61.4313 157.6477 61.3848 157.5445 61.331 157.4399 61.2768 157.3226 61.2289 157.193 61.187 157.0635 61.1433 156.9214 61.1087 156.7687 61.0835 156.6162 61.0563 156.458 61.043 156.2947 61.043 155.9591 61.043 155.6609 61.0909 155.4021 61.1838 155.141 61.2782 154.9244 61.4149 154.7484 61.5949 154.5729 61.7749 154.44 61.9968 154.3473 62.2579 154.2572 62.5204 154.2107 62.8234 154.2107 63.1653 154.2107 63.5553 154.2657 63.8898 154.3796 64.1704 154.4913 64.4494 154.6455 64.679 154.8428 64.8573 155.0381 65.0358 155.2689 65.1694 155.5333 65.255 155.7995 65.342 156.0852 65.3854 156.3942 65.3854 156.5433 65.3854 156.6887 65.3734 156.829 65.3494 156.9694 65.327 157.0992 65.2955 157.2163 65.2578 157.3333 65.2204 157.4399 65.1753 157.5303 65.126 157.6227 65.0764 157.6902 65.0344 157.7307 64.9984 157.7735 64.9638 157.8019 64.9355 157.8161 64.9142 157.8322 64.895 157.8461 64.8709 157.8552 64.8422 157.866 64.8139 157.873 64.7838 157.8764 64.7478 157.8801 64.7133 157.8818 64.6685 157.8818 64.6157 157.8818 64.5018 157.866 64.4224 157.8359 64.3774 157.8036 64.3309 157.7665 64.3085 157.7205 64.3085 157.6687 64.3085 157.6083 64.3323 157.5408 64.3805 157.4736 64.4298 157.3883 64.4822 157.2837 64.5409 157.1805 64.5993 157.0544 64.6534 156.9073 64.7014 156.7599 64.751 156.5858 64.7748 156.3837 64.7748 155.9716 64.7748 155.6555 64.6398 155.4355 64.3728 155.2156 64.1044 155.1056 63.7157 155.1056 63.2058 155.1056 62.951 155.1339 62.7273 155.1906 62.5354 155.2473 62.3435 155.3326 62.1828 155.4426 62.0538 155.5546 61.9248 155.6895 61.829 155.8511 61.7658 156.0127 61.7029 156.1972 61.6714 156.405 61.6714 156.602 61.6714 156.7757 61.6983 156.9251 61.7508 157.074 61.8035 157.2038 61.8619 157.3121 61.9248 157.422 61.9877 157.5145 62.045 157.589 62.0957 157.6633 62.1468 157.7205 62.1723 157.7631 62.1723 157.7857 62.1723 157.8073 62.1663 157.8251 62.1558 157.8427 62.1439 157.8569 62.1244 157.8694 62.0957 157.8818 62.0674 157.8889 62.0328 157.8943 61.9909 157.8994 61.9475 157.9034 61.8979 157.9034 61.8395ZM163.3048 63.2582C163.3048 62.9359 163.2552 62.6389 163.154 62.369 163.0545 62.0974 162.9037 61.8633 162.7047 61.6669 162.506 61.4704 162.2554 61.3174 161.9555 61.2079 161.6556 61.0982 161.3078 61.043 160.9138 61.043 160.5285 61.043 160.1932 61.0923 159.9072 61.1884 159.6214 61.2845 159.3816 61.4254 159.1917 61.6099 159.0018 61.7944 158.8601 62.0195 158.7657 62.2834 158.6718 62.5459 158.6254 62.8458 158.6254 63.1789 158.6254 63.5014 158.6752 63.7982 158.7728 64.0684 158.8723 64.3399 159.0214 64.5738 159.2203 64.7702 159.4188 64.967 159.6694 65.1183 159.9676 65.2263 160.2658 65.3357 160.6139 65.3899 161.0113 65.3899 161.3965 65.3899 161.7318 65.342 162.0176 65.2445 162.3036 65.1484 162.5434 65.0075 162.7333 64.823 162.9247 64.6384 163.067 64.4134 163.1631 64.1509 163.2586 63.887 163.3048 63.5899 163.3048 63.2582ZM162.4011 63.2103C162.4011 63.4235 162.3762 63.6259 162.3302 63.8164 162.284 64.0069 162.2058 64.1733 162.0995 64.3173 161.9912 64.4613 161.8455 64.5738 161.6627 64.658 161.4781 64.7419 161.2491 64.7838 160.9758 64.7838 160.7219 64.7838 160.5053 64.745 160.3225 64.6685 160.1413 64.5934 159.9905 64.4854 159.8734 64.3459 159.7547 64.2064 159.6674 64.0414 159.6107 63.851 159.554 63.6605 159.5256 63.4533 159.5256 63.2268 159.5256 63.0108 159.5486 62.807 159.5945 62.6165 159.641 62.426 159.719 62.2593 159.8292 62.1184 159.9375 61.9758 160.0846 61.8633 160.2675 61.7794 160.452 61.6955 160.6813 61.655 160.9546 61.655 161.2049 61.655 161.4212 61.6924 161.604 61.7689 161.7888 61.8454 161.9399 61.9517 162.057 62.0898 162.1757 62.2264 162.2628 62.3914 162.318 62.5819 162.373 62.7724 162.4011 62.981 162.4011 63.2103" fill="#ed1c24"/>
<path transform="matrix(1,0,0,-1,0,141.7323)" d="M77.3697 74.9143H82.8159V72.322H77.3697Z" fill="#ed1c24" fill-rule="evenodd"/>
<path transform="matrix(1,0,0,-1,0,141.7323)" d="M88.9118 91.9568C92.9424 91.9568 96.2096 88.6895 96.2096 84.659 96.2096 80.6284 92.9424 77.3612 88.9118 77.3612 84.8812 77.3612 81.614 80.6284 81.614 84.659 81.614 88.6895 84.8812 91.9568 88.9118 91.9568" fill="#ffffff" fill-rule="evenodd"/>
</svg>
